<svg width="32" height="32" xmlns="http://www.w3.org/2000/svg">
  <rect x="10" y="12" width="12" height="16" fill="#F5DEB3"/>
  <line x1="10" y1="14" x2="22" y2="14" stroke="#FFFFF0" stroke-width="2"/>
  <line x1="10" y1="18" x2="22" y2="18" stroke="#FFFFF0" stroke-width="2"/>
  <line x1="10" y1="22" x2="22" y2="22" stroke="#FFFFF0" stroke-width="2"/>
  <line x1="10" y1="26" x2="22" y2="26" stroke="#FFFFF0" stroke-width="2"/>
  <circle cx="16" cy="8" r="6" fill="#F5DEB3"/>
  <line x1="10" y1="8" x2="22" y2="8" stroke="#FFFFF0" stroke-width="2"/>
  <line x1="16" y1="2" x2="16" y2="14" stroke="#FFFFF0" stroke-width="2"/>
  <circle cx="18" cy="7" r="1" fill="red"/>
  <rect x="10" y="28" width="4" height="4" fill="#F5DEB3"/>
  <rect x="20" y="28" width="4" height="4" fill="#F5DEB3"/>
  <line x1="10" y1="30" x2="14" y2="30" stroke="#FFFFF0" stroke-width="1"/>
  <line x1="20" y1="30" x2="24" y2="30" stroke="#FFFFF0" stroke-width="1"/>
  <rect x="6" y="14" width="4" height="10" fill="#F5DEB3"/>
  <rect x="22" y="16" width="4" height="10" fill="#F5DEB3"/>
  <line x1="6" y1="16" x2="10" y2="16" stroke="#FFFFF0" stroke-width="1"/>
  <line x1="6" y1="20" x2="10" y2="20" stroke="#FFFFF0" stroke-width="1"/>
  <line x1="6" y1="24" x2="10" y2="24" stroke="#FFFFF0" stroke-width="1"/>
  <line x1="22" y1="18" x2="26" y2="18" stroke="#FFFFF0" stroke-width="1"/>
  <line x1="22" y1="22" x2="26" y2="22" stroke="#FFFFF0" stroke-width="1"/>
  <line x1="22" y1="26" x2="26" y2="26" stroke="#FFFFF0" stroke-width="1"/>
</svg>
